<svg width="358" height="230" viewBox="0 0 358 230" fill="none" xmlns="http://www.w3.org/2000/svg">
<path fill-rule="evenodd" clip-rule="evenodd" d="M25.4636 0L0 18.4778L6.49073 177.97L18.4736 190.613H260.628L295.578 230L333.552 191.307L348.526 190.613L358 177.97L350 27.7167L331.526 13.6152L25.4636 0ZM112.312 98.7878L92.6698 66.8435L55.1841 67.8819L37.3406 100.865L56.9827 132.809L94.4683 131.771L112.312 98.7878ZM168.999 64.1093L200.226 73.2634L212.539 103.385L196.666 131.793L164.559 137.094L140.396 115.297L142.372 82.8162L168.999 64.1093ZM310.976 82.75L278.5 64L246.024 82.75V120.25L278.5 139L310.976 120.25V82.75Z" fill="#16C0C0"/>
</svg>
